<svg xmlns="http://www.w3.org/2000/svg" width="200" height="200" viewBox="0 0 200 200" fill="none"><path d="M92.0422 26.0039L96.3765 34.1448C97.351 35.6471 98.4066 36.9768 99.6501 38.2152C103.296 41.8153 106.694 45.6576 109.821 49.7159C117.165 59.3591 122.119 70.068 125.656 81.65C127.778 88.725 128.93 95.9828 129.016 103.322C129.371 125.262 121.85 144.102 106.685 159.76C104.218 162.242 101.553 164.52 98.7162 166.571C97.2139 166.571 96.5034 165.419 95.8842 164.358C94.7566 162.391 94.0061 160.231 93.6713 157.988C93.1384 155.334 92.7882 152.679 92.9608 149.939V148.7C92.839 148.436 91.5143 26.6282 92.0422 26.0039Z" fill="#FAFAFA"></path><path d="M92.0421 25.7332C91.8645 25.3779 91.6868 25.6469 91.5092 25.8195C91.5955 27.5959 90.9763 29.1794 90.0069 30.6918C88.9411 32.1941 87.5301 33.3462 86.1141 34.5846C78.2473 41.3957 72.0554 49.6228 67.0968 58.8244C60.4988 71.2083 57.0984 84.4803 56.134 98.4527C55.6925 103.493 57.7277 121.277 59.3163 126.408C63.6506 140.03 71.4362 151.444 81.5209 161.351C83.9977 163.737 86.647 165.95 89.3877 168.076C90.1845 168.076 90.2708 167.366 90.4535 166.838C90.8029 165.708 91.0692 164.555 91.2504 163.387L93.0267 150.12L92.0421 25.7332Z" fill="white"></path><path d="M96.3764 171.958C96.5541 169.928 97.5286 168.243 98.5893 166.563C97.5235 166.121 96.7317 165.243 96.1125 164.264C95.5786 163.336 95.1366 162.359 94.7929 161.345C93.5546 157.63 93.2906 153.732 92.9354 149.936V147.637C92.4938 147.992 92.4024 150.997 92.4024 151.443C92.1442 155.456 91.6117 159.446 90.8088 163.386C90.5449 164.979 90.3672 166.568 89.3877 167.984C89.3877 168.161 89.3877 168.339 89.474 168.603C91.0676 173.293 91.5041 178.068 91.7731 182.936V184.712C91.7731 186.834 91.6868 186.387 93.448 187.098C94.1585 187.361 94.9503 187.453 95.6608 187.981C96.1937 187.981 96.28 187.539 96.28 187.184L96.0161 184.265V176.125C95.9298 174.704 96.1937 173.293 96.3714 171.963L96.3764 171.958Z" fill="white"></path></svg>